<svg xmlns="http://www.w3.org/2000/svg" xmlns:xlink="http://www.w3.org/1999/xlink" width="667.684" height="436.417" viewBox="0 0 667.684 436.417">
  <defs>
    <linearGradient id="linear-gradient" x1="6.052" y1="0.5" x2="-22.765" y2="0.5" gradientUnits="objectBoundingBox">
      <stop offset="0" stop-color="#19425e"/>
      <stop offset="0.992" stop-color="#34adc7"/>
    </linearGradient>
    <linearGradient id="linear-gradient-3" x1="147.216" y1="-0.457" x2="118.4" y2="-0.457" xlink:href="#linear-gradient"/>
    <linearGradient id="linear-gradient-4" x1="4.544" y1="-1.484" x2="-3.147" y2="2.078" gradientUnits="objectBoundingBox">
      <stop offset="0" stop-color="#fcc4ad"/>
      <stop offset="0.147" stop-color="#f3baa4"/>
      <stop offset="0.393" stop-color="#dca08c"/>
      <stop offset="0.706" stop-color="#b77666"/>
      <stop offset="0.958" stop-color="#955043"/>
    </linearGradient>
  </defs>
  <g id="flutter-app-development" transform="translate(-47.969 -31.595)">
    <g id="Group_1436" data-name="Group 1436" transform="translate(-102.584 -22.481)">
      <g id="Group_10" data-name="Group 10" transform="translate(137.584 78.481)">
        <g id="Group_3" data-name="Group 3" transform="translate(20.411 27.838)" opacity="0.3">
          <path id="Path_1" data-name="Path 1" d="M294.089,177.564V164.335a2.342,2.342,0,0,0-2.343-2.343h-3.4a2.149,2.149,0,0,1-2.1-1.649,46.8,46.8,0,0,0-5.893-14.3,2.183,2.183,0,0,1,.285-2.708l2.394-2.394a2.344,2.344,0,0,0,0-3.314l-9.354-9.354a2.342,2.342,0,0,0-3.313,0l-2.392,2.392a2.182,2.182,0,0,1-2.708.284,46.837,46.837,0,0,0-14.306-5.9,2.147,2.147,0,0,1-1.648-2.1v-3.394a2.344,2.344,0,0,0-2.344-2.344H233.733a2.344,2.344,0,0,0-2.344,2.344v3.393a2.149,2.149,0,0,1-1.649,2.1,46.811,46.811,0,0,0-14.307,5.9,2.182,2.182,0,0,1-2.708-.285l-2.389-2.389a2.342,2.342,0,0,0-3.313,0l-9.353,9.354a2.344,2.344,0,0,0,0,3.314l2.392,2.392a2.18,2.18,0,0,1,.284,2.707,46.887,46.887,0,0,0-5.895,14.306,2.147,2.147,0,0,1-2.1,1.649h-3.4a2.343,2.343,0,0,0-2.344,2.343v13.229a2.343,2.343,0,0,0,2.344,2.343h3.4a2.148,2.148,0,0,1,2.1,1.648,46.86,46.86,0,0,0,5.9,14.3,2.181,2.181,0,0,1-.284,2.708l-2.394,2.4a2.342,2.342,0,0,0,0,3.313l9.353,9.355a2.342,2.342,0,0,0,3.313,0l2.4-2.4a2.183,2.183,0,0,1,2.708-.284,46.844,46.844,0,0,0,14.3,5.888,2.149,2.149,0,0,1,1.649,2.1v3.411a2.344,2.344,0,0,0,2.344,2.344h13.228a2.344,2.344,0,0,0,2.344-2.344v-3.413a2.15,2.15,0,0,1,1.649-2.1,46.831,46.831,0,0,0,14.3-5.888,2.181,2.181,0,0,1,2.707.284l2.4,2.4a2.342,2.342,0,0,0,3.313,0l9.354-9.355a2.342,2.342,0,0,0,0-3.313l-2.4-2.4a2.183,2.183,0,0,1-.285-2.708,46.792,46.792,0,0,0,5.895-14.3,2.148,2.148,0,0,1,2.1-1.65h3.407A2.342,2.342,0,0,0,294.089,177.564Zm-53.745,30.684a37.295,37.295,0,1,1,37.279-37.311A37.289,37.289,0,0,1,240.344,208.249Z" transform="translate(-186.604 -117.207)" fill="none" stroke="#0a6cc7" stroke-miterlimit="10" stroke-width="0.79"/>
          <path id="Path_2" data-name="Path 2" d="M333.521,207.93v-9.015a1.6,1.6,0,0,0-1.6-1.6H329.6a1.464,1.464,0,0,1-1.433-1.124,31.911,31.911,0,0,0-4.015-9.746,1.486,1.486,0,0,1,.194-1.846l1.631-1.631a1.6,1.6,0,0,0,0-2.259l-6.375-6.375a1.6,1.6,0,0,0-2.257,0l-1.63,1.63a1.489,1.489,0,0,1-1.846.194,31.89,31.89,0,0,0-9.748-4.02A1.465,1.465,0,0,1,303,170.708V168.4a1.6,1.6,0,0,0-1.6-1.6h-9.015a1.6,1.6,0,0,0-1.6,1.6v2.313a1.465,1.465,0,0,1-1.124,1.433,31.921,31.921,0,0,0-9.751,4.019,1.489,1.489,0,0,1-1.846-.194l-1.628-1.628a1.6,1.6,0,0,0-2.259,0l-6.373,6.375a1.6,1.6,0,0,0,0,2.259l1.63,1.63a1.487,1.487,0,0,1,.194,1.844,31.9,31.9,0,0,0-4.017,9.75,1.464,1.464,0,0,1-1.433,1.123h-2.318a1.6,1.6,0,0,0-1.6,1.6v9.015a1.6,1.6,0,0,0,1.6,1.6h2.319a1.463,1.463,0,0,1,1.431,1.123,31.96,31.96,0,0,0,4.018,9.747,1.486,1.486,0,0,1-.194,1.846l-1.631,1.631a1.6,1.6,0,0,0,0,2.259l6.373,6.375a1.6,1.6,0,0,0,2.259,0l1.634-1.634a1.485,1.485,0,0,1,1.844-.194,31.944,31.944,0,0,0,9.746,4.013,1.464,1.464,0,0,1,1.124,1.433v2.326a1.6,1.6,0,0,0,1.6,1.6H301.4a1.6,1.6,0,0,0,1.6-1.6v-2.327a1.463,1.463,0,0,1,1.124-1.431,31.952,31.952,0,0,0,9.745-4.014,1.487,1.487,0,0,1,1.844.194l1.635,1.635a1.6,1.6,0,0,0,2.257,0l6.375-6.375a1.6,1.6,0,0,0,0-2.259l-1.634-1.633a1.489,1.489,0,0,1-.194-1.846,31.918,31.918,0,0,0,4.017-9.746,1.464,1.464,0,0,1,1.433-1.123h2.322A1.6,1.6,0,0,0,333.521,207.93Zm-36.627,19.479a23.983,23.983,0,1,1,23.972-23.992A23.978,23.978,0,0,1,296.894,227.409Z" transform="translate(-165.191 -102.792)" fill="#0a6cc7"/>
        </g>
        <g id="Group_4" data-name="Group 4" transform="translate(12.969)" opacity="0.3">
          <circle id="Ellipse_1" data-name="Ellipse 1" cx="4.37" cy="4.37" r="4.37" transform="translate(44.635 376.944)" fill="#0a6cc7"/>
          <circle id="Ellipse_2" data-name="Ellipse 2" cx="4.37" cy="4.37" r="4.37" transform="translate(630.124 257.528)" fill="#0a6cc7"/>
          <circle id="Ellipse_3" data-name="Ellipse 3" cx="4.37" cy="4.37" r="4.37" transform="translate(621.384 101.474)" fill="#0a6cc7"/>
          <circle id="Ellipse_4" data-name="Ellipse 4" cx="2.741" cy="2.741" r="2.741" transform="translate(465.881 50.063)" fill="#0a6cc7"/>
          <path id="Path_3" data-name="Path 3" d="M199.981,98.027a2.741,2.741,0,1,1-2.741-2.741A2.741,2.741,0,0,1,199.981,98.027Z" transform="translate(-133.867 -81.741)" fill="#0a6cc7"/>
          <path id="Path_4" data-name="Path 4" d="M246.991,228.823a2.741,2.741,0,1,1-2.741-2.741A2.741,2.741,0,0,1,246.991,228.823Z" transform="translate(-120.203 -43.722)" fill="#0a6cc7"/>
          <path id="Path_5" data-name="Path 5" d="M169.07,384.232a2.741,2.741,0,1,1-2.741-2.74A2.741,2.741,0,0,1,169.07,384.232Z" transform="translate(-142.852 1.452)" fill="#0a6cc7"/>
          <circle id="Ellipse_5" data-name="Ellipse 5" cx="4.37" cy="4.37" r="4.37" transform="translate(566.015 379.526)" fill="#0a6cc7"/>
          <circle id="Ellipse_6" data-name="Ellipse 6" cx="4.37" cy="4.37" r="4.37" transform="translate(658.944 379.526)" fill="#0a6cc7"/>
          <circle id="Ellipse_7" data-name="Ellipse 7" cx="4.37" cy="4.37" r="4.37" transform="translate(137.09)" fill="#0a6cc7"/>
          <path id="Path_6" data-name="Path 6" d="M493.384,243.553a5.847,5.847,0,1,1-5.848-5.848A5.848,5.848,0,0,1,493.384,243.553Z" transform="translate(-50.389 -40.344)" fill="#0a6cc7"/>
          <path id="Path_7" data-name="Path 7" d="M159.217,187.527a5.847,5.847,0,1,1-5.847-5.847A5.848,5.848,0,0,1,159.217,187.527Z" transform="translate(-147.522 -56.628)" fill="#0a6cc7"/>
        </g>
        <g id="Group_9" data-name="Group 9" transform="translate(56.936 348.024)" opacity="0.3">
          <g id="Group_8" data-name="Group 8">
            <rect id="Rectangle_8" data-name="Rectangle 8" width="9.068" height="9.068" rx="0.664" fill="#0a6cc7"/>
            <rect id="Rectangle_9" data-name="Rectangle 9" width="9.068" height="9.068" rx="0.664" transform="translate(12.13)" fill="#0a6cc7"/>
            <rect id="Rectangle_10" data-name="Rectangle 10" width="9.068" height="9.068" rx="0.664" transform="translate(24.259)" fill="#0a6cc7"/>
          </g>
        </g>
      </g>
      <g id="Group_32" data-name="Group 32" transform="translate(691.923 236.308)">
        <path id="Path_79" data-name="Path 79" d="M643.406,207.074H574.918a7.948,7.948,0,0,0-7.948,7.948V231.2a7.951,7.951,0,0,0,6.945,7.886,1.144,1.144,0,0,1,1,1.137v8.858a.527.527,0,0,0,.955.306l6.976-9.755a1.155,1.155,0,0,1,.94-.484h59.618a7.948,7.948,0,0,0,7.948-7.948V215.022A7.948,7.948,0,0,0,643.406,207.074Z" transform="translate(-566.97 -207.074)" fill="none" stroke="#fff" stroke-miterlimit="10" stroke-width="0.896"/>
        <g id="Group_31" data-name="Group 31" transform="translate(13.222 13.396)">
          <path id="Path_80" data-name="Path 80" d="M582.448,220.071a2.617,2.617,0,1,1-2.617-2.617A2.616,2.616,0,0,1,582.448,220.071Z" transform="translate(-577.214 -217.453)" fill="none" stroke="#fff" stroke-miterlimit="10" stroke-width="0.896"/>
          <path id="Path_81" data-name="Path 81" d="M592.657,220.071a2.617,2.617,0,1,1-2.616-2.617A2.616,2.616,0,0,1,592.657,220.071Z" transform="translate(-574.247 -217.453)" fill="none" stroke="#fff" stroke-miterlimit="10" stroke-width="0.896"/>
          <path id="Path_82" data-name="Path 82" d="M602.865,220.071a2.616,2.616,0,1,1-2.616-2.617A2.615,2.615,0,0,1,602.865,220.071Z" transform="translate(-571.279 -217.453)" fill="none" stroke="#fff" stroke-miterlimit="10" stroke-width="0.896"/>
          <path id="Path_83" data-name="Path 83" d="M613.076,220.071a2.617,2.617,0,1,1-2.617-2.617A2.616,2.616,0,0,1,613.076,220.071Z" transform="translate(-568.311 -217.453)" fill="none" stroke="#fff" stroke-miterlimit="10" stroke-width="0.896"/>
          <path id="Path_84" data-name="Path 84" d="M623.285,220.071a2.617,2.617,0,1,1-2.616-2.617A2.615,2.615,0,0,1,623.285,220.071Z" transform="translate(-565.344 -217.453)" fill="none" stroke="#fff" stroke-miterlimit="10" stroke-width="0.896"/>
        </g>
      </g>
      <g id="Group_34" data-name="Group 34" transform="translate(219.231 307.239)">
        <path id="Path_85" data-name="Path 85" d="M208.681,262.031h68.488a7.947,7.947,0,0,1,7.947,7.947v16.18a7.948,7.948,0,0,1-6.944,7.885,1.146,1.146,0,0,0-1,1.138v8.857a.526.526,0,0,1-.955.306l-6.976-9.755a1.154,1.154,0,0,0-.94-.483H208.681a7.948,7.948,0,0,1-7.948-7.948v-16.18A7.948,7.948,0,0,1,208.681,262.031Z" transform="translate(-200.733 -262.031)" fill="none" stroke="#fff" stroke-miterlimit="10" stroke-width="0.896"/>
        <g id="Group_33" data-name="Group 33" transform="translate(13.222 13.396)">
          <path id="Path_86" data-name="Path 86" d="M251.814,275.027a2.617,2.617,0,1,0,2.617-2.617A2.617,2.617,0,0,0,251.814,275.027Z" transform="translate(-199.107 -272.41)" fill="none" stroke="#fff" stroke-miterlimit="10" stroke-width="0.896"/>
          <path id="Path_87" data-name="Path 87" d="M241.605,275.027a2.617,2.617,0,1,0,2.616-2.617A2.617,2.617,0,0,0,241.605,275.027Z" transform="translate(-202.074 -272.41)" fill="none" stroke="#fff" stroke-miterlimit="10" stroke-width="0.896"/>
          <path id="Path_88" data-name="Path 88" d="M231.4,275.027a2.617,2.617,0,1,0,2.617-2.617A2.617,2.617,0,0,0,231.4,275.027Z" transform="translate(-205.042 -272.41)" fill="none" stroke="#fff" stroke-miterlimit="10" stroke-width="0.896"/>
          <path id="Path_89" data-name="Path 89" d="M221.186,275.027a2.617,2.617,0,1,0,2.616-2.617A2.617,2.617,0,0,0,221.186,275.027Z" transform="translate(-208.01 -272.41)" fill="none" stroke="#fff" stroke-miterlimit="10" stroke-width="0.896"/>
          <path id="Path_90" data-name="Path 90" d="M210.977,275.027a2.617,2.617,0,1,0,2.616-2.617A2.616,2.616,0,0,0,210.977,275.027Z" transform="translate(-210.977 -272.41)" fill="none" stroke="#fff" stroke-miterlimit="10" stroke-width="0.896"/>
        </g>
      </g>
    </g>
    <g id="Group_68" data-name="Group 68" transform="translate(-185.753 -98.605)">
      <g id="Group_4-2" data-name="Group 4" transform="translate(428.764 113.925)">
        <g id="Group_3-2" data-name="Group 3" transform="translate(245.483 200.348)" opacity="0.2">
          <path id="Path_4-2" data-name="Path 4" d="M592.592,265.048c9.913-1.2,14.312-3.322,16.847-6.515a14.8,14.8,0,0,0,2.437-5.692c.267-1.087.477-2.254.726-3.464.272-1.195.554-2.452.894-3.768a18.647,18.647,0,0,1,3.95-7.4,16.59,16.59,0,0,1,7.089-4.765c5.428-1.88,11.727-.609,17.47,6a14.191,14.191,0,0,1,3.837,9.993c-.061,3.339-1.429,6.469-3.051,9.643a60.841,60.841,0,0,1-5.913,8.779c-1.959,2.745-3.841,5.157-5,7.023-2.367,3.707.582,7.484,3.564,12.227,3.046,4.784,6.1,10.519,5.226,18.681a19.642,19.642,0,0,1-1.431,5.373,15.63,15.63,0,0,1-2.528,4.244,28.676,28.676,0,0,1-7.695,6.007c-2.9,1.649-6.088,3.014-9.109,4.374A43.667,43.667,0,0,0,612.1,330.2c-8.6,6.483-6.5,18.664,2.472,29.388,4.473,5.388,5.442,9.527,3.967,13.077-1.358,3.565-4.794,6.625-9.036,9.571-8.153,5.911-11.53,10.612-5.987,21.462a9.364,9.364,0,0,1,.145,8.218,23.07,23.07,0,0,1-6.557,7.87,41.635,41.635,0,0,1-24.563,8.979c-9.358.076-19.872-3.749-28.664-11.434a49.05,49.05,0,0,1-16.393-32.749,41.3,41.3,0,0,1,4.892-23.051c3.314-6.412,8.236-11.569,12.971-16.337,2.327-2.4,4.865-4.634,7.173-6.9a70.521,70.521,0,0,0,6.373-6.945,35.233,35.233,0,0,0,5.01-7.644,28.253,28.253,0,0,0,1.638-4.379,34.722,34.722,0,0,0,1.109-4.841c.508-3.422.8-6.679.985-9.782.26-3.069.459-5.967.612-8.727.172-2.752.277-5.383.562-7.816a50.933,50.933,0,0,1,1.284-6.8,24.27,24.27,0,0,1,2.367-5.854,17.427,17.427,0,0,1,4.225-4.726C580.246,268.028,585.129,265.919,592.592,265.048Z" transform="translate(-527.393 -232.657)" fill="#0a6cc7"/>
        </g>
      </g>
      <path id="Path_5-2" data-name="Path 5" d="M745.5,325.063c19.353-25.572,23.019-72.409-14.954-97.7-37.735-25.13-82.336-22.567-121.316-68.145-4.873-5.7-9.245-12.013-10.2-19.58-1.24-9.885,6.674-19.911,13.823-14.129,7.976,6.451,3.527,25.405-15.023,39.488a116.527,116.527,0,0,1-72.406,23.522c-26.593-.564-52.618-10.323-79.184-8.97-42.534,2.167-81.695,36.135-91.166,79.079-5.87,26.61-.022,55.228,14.177,78.153" transform="translate(26.849 6.795)" fill="none" stroke="#0a6cc7" stroke-miterlimit="10" stroke-width="0.5" stroke-dasharray="3 3" opacity="0.5"/>
      <g id="Group_14" data-name="Group 14" transform="translate(728.714 339.094)">
        <g id="Group_9-2" data-name="Group 9" transform="translate(0 0)">
          <g id="Group_5" data-name="Group 5" transform="translate(0 96.635)">
            <path id="Path_6-2" data-name="Path 6" d="M638.368,308.8a33.141,33.141,0,0,0-6.51,2.462q-1.86.979-4.035,2.128c-1.433.756-2.9,1.719-4.473,2.624-6.259,3.781-13.462,8.585-21.762,13.722-5.047,3.213-9.861,6.309-14.355,9.362-4.421,3.122-8.628,6.075-12.249,9.055-7.342,5.852-12.767,11.38-15.313,15.389,2.543-3.987,5.447-11.147,10.926-19.373a88.206,88.206,0,0,1,10.16-12.692,82.318,82.318,0,0,1,14.552-11.793,67.474,67.474,0,0,1,26.074-9.26C628.955,309.267,634.839,309.6,638.368,308.8Z" transform="translate(-559.672 -308.801)" fill="#ff8727"/>
          </g>
          <g id="Group_6" data-name="Group 6" transform="translate(8.915 77.973)">
            <path id="Path_7-2" data-name="Path 7" d="M629.111,297.741c-2.985.793-7.31,3.376-12.328,7.053-5.064,3.636-10.8,8.159-17.544,12.826-4.094,2.916-8.027,5.685-11.721,8.4-3.625,2.774-7.106,5.388-10.092,8.02-6.066,5.17-10.546,10.062-12.471,13.61,1.922-3.525,3.775-9.876,7.846-17.318a70.4,70.4,0,0,1,7.818-11.555,64.872,64.872,0,0,1,11.83-10.877,52.781,52.781,0,0,1,22.125-8.609C621.078,298.224,626.143,298.536,629.111,297.741Z" transform="translate(-564.955 -297.741)" fill="#ff8727"/>
          </g>
          <g id="Group_7" data-name="Group 7" transform="translate(11.091 51.656)">
            <path id="Path_8" data-name="Path 8" d="M625.425,282.145a23.458,23.458,0,0,0-5.427,2.3l-3.29,2.037c-1.163.722-2.325,1.659-3.577,2.524-4.971,3.646-10.465,8.263-16.789,13.226-3.83,3.108-7.472,6.115-10.846,9.109-3.285,3.054-6.437,5.98-9.033,8.933-5.325,5.806-8.938,11.363-10.217,15.173,1.282-3.778,2.04-10.344,5.162-18.269a61.019,61.019,0,0,1,6.535-12.4,58.24,58.24,0,0,1,11.034-11.839,47.7,47.7,0,0,1,21.909-9.422c1.645-.226,3.152-.5,4.6-.586l4-.27A33.189,33.189,0,0,0,625.425,282.145Z" transform="translate(-566.245 -282.145)" fill="#ff8727"/>
          </g>
          <g id="Group_8-2" data-name="Group 8" transform="translate(14.577)">
            <path id="Path_9" data-name="Path 9" d="M574.841,251.532c.737,2.983,3.427,7.262,5.784,13.366a57.461,57.461,0,0,1,4.227,23.156,71.241,71.241,0,0,1-2.5,15.7,79.983,79.983,0,0,1-4.927,12.93c-3.631,7.593-7.509,12.929-9.11,16.609,1.613-3.694,2.744-10.207,3.4-18.187.378-3.982.532-8.358.768-12.957.167-4.588.344-9.46.53-14.55.287-8.28,1.173-15.608,1.756-21.84C575.39,259.549,575.585,254.525,574.841,251.532Z" transform="translate(-568.311 -251.532)" fill="#ff8727"/>
          </g>
        </g>
        <g id="Group_13" data-name="Group 13" transform="translate(31.146 175.131)">
          <g id="Group_12" data-name="Group 12" transform="translate(0 0)">
            <path id="Path_12" data-name="Path 12" d="M614.392,356.287c-2.673.947-6.348,8.54-13.913,11.225-9.254,3.284-18.858.4-22.349,1.64,3.491-1.239,9.132-9.529,18.386-12.812C604.08,353.654,611.719,357.233,614.392,356.287Z" transform="translate(-578.13 -355.32)" fill="#ff8727"/>
          </g>
        </g>
      </g>
      <g id="Group_16" data-name="Group 16" transform="translate(472.111 424.235)" opacity="0.3">
        <path id="Path_13" data-name="Path 13" d="M499.007,328.46a86.856,86.856,0,0,1,16.754,33.323,92.636,92.636,0,0,1,2.553,16.737c.148,2.686.248,5.265.209,7.769-.108,2.538-.282,4.969-.508,7.281a79.929,79.929,0,0,1-2.173,12.5c-.449,1.833-.9,3.523-1.363,5.076-.528,1.573-1.044,3-1.532,4.278a75.27,75.27,0,0,1-3.432,7.851s-2.7-1.865-6.854-5.018c-1.021-.786-2.145-1.65-3.356-2.582l-4.006-2.918c-2.8-2.059-5.729-4.362-9.063-6.707-1.625-1.188-3.263-2.415-4.893-3.68-1.7-1.239-3.469-2.486-5.174-3.786-3.317-2.646-7.038-5.2-10.332-8.042A116.284,116.284,0,0,1,432,350.008c-2.2-3.749-4.056-7.867-6.068-11.6-.974-1.908-1.887-3.871-2.8-5.768-.955-1.829-1.87-3.662-2.747-5.472-1.713-3.7-3.456-6.993-4.981-10.116-.763-1.579-1.483-3.073-2.153-4.461-.7-1.36-1.35-2.619-1.94-3.765-2.362-4.647-3.714-7.64-3.714-7.64a75.1,75.1,0,0,1,8.339-1.974c1.343-.251,2.84-.5,4.482-.744,1.61-.179,3.355-.319,5.236-.434a79.919,79.919,0,0,1,12.684.095c2.315.191,4.738.454,7.254.8,2.47.41,4.99.969,7.607,1.595a92.7,92.7,0,0,1,16.012,5.5A86.856,86.856,0,0,1,499.007,328.46Z" transform="translate(-407.601 -297.824)" fill="#0a6cc7" opacity="0.3"/>
        <g id="Group_15" data-name="Group 15" transform="translate(0 0.593)" opacity="0.5">
          <path id="Path_14" data-name="Path 14" d="M474.93,308.719l-1.723-.948c.167,2.771.45,6.37.918,10.448.393,4.154.886,8.871,1.686,13.717.388,2.437.72,5.028,1.207,7.571.44,2.582,1.09,5.071,1.63,7.723.569,2.631,1.247,5.241,2.065,7.809.849,2.546,1.588,5.236,2.637,7.767-1.525-2.108-2.914-4.316-4.552-6.341l-4.833-6.13c-1.642-2.016-3.424-3.92-5.128-5.884-.871-.967-1.706-1.966-2.6-2.907l-2.745-2.776A45.865,45.865,0,0,1,459.409,334a47.45,47.45,0,0,1-3.555-4.949,94.985,94.985,0,0,1-5.58-10.523c-1.532-3.64-2.96-7.122-4.141-10.543s-2.114-6.77-3-9.615l-1.741-.2c1.4,4.51,3.014,10.161,5.3,15.728,1.176,2.742,2.3,5.764,3.734,8.55.7,1.416,1.473,2.791,2.271,4.171q1.142,2.136,2.469,4.175a175.48,175.48,0,0,0-46.447-30.182l-1.117.324h0l.5,1.085a173.891,173.891,0,0,1,46.035,29.919A47.219,47.219,0,0,0,449.818,330a44.626,44.626,0,0,0-4.478-1.286,41.582,41.582,0,0,0-8.734-1.212,50.353,50.353,0,0,0-15.057,1.773l.66,1.3a45.309,45.309,0,0,1,8.923-1.463,41.791,41.791,0,0,1,10.467.388,37.142,37.142,0,0,1,10.887,3.321,44.139,44.139,0,0,1,5.219,2.966,38.942,38.942,0,0,1,4.684,4.056l2.723,2.75c.889.933,1.718,1.925,2.58,2.884,1.691,1.949,3.457,3.834,5.086,5.835l4.792,6.08c1.625,2.006,3,4.2,4.514,6.287a42.708,42.708,0,0,0-6.405-4.833,62.079,62.079,0,0,0-6.876-3.537,47.16,47.16,0,0,0-7.033-2.332,53.589,53.589,0,0,0-6.814-1.362,68.138,68.138,0,0,0-12.274-.321,71.038,71.038,0,0,0-9.1,1.406l.717,1.254a57.393,57.393,0,0,1,11.122-1.338,55.574,55.574,0,0,1,14.836,1.512,49.928,49.928,0,0,1,15.814,6.731,55.491,55.491,0,0,1,7.082,5.887,45.711,45.711,0,0,1,5.842,7.642c1.144,1.736,2.028,3.621,3.051,5.427.975,1.831,2.01,3.633,2.939,5.487l2.647,5.636,1.325,2.816c.422.948.781,1.924,1.174,2.884a42.241,42.241,0,0,0-6.711-7.352,43.24,43.24,0,0,0-7.681-5.548,56.6,56.6,0,0,0-15.76-6.265,68.135,68.135,0,0,0-12.968-1.585,50.992,50.992,0,0,0-6.75.292l1.2,1.223a56.227,56.227,0,0,1,9.735.137,59.067,59.067,0,0,1,7.271,1.075A68.248,68.248,0,0,1,476.549,381a47.789,47.789,0,0,1,8.371,4c1.39.815,2.779,1.7,4.154,2.658q1.946,1.5,3.832,3.218c1.254,1.147,2.479,2.371,3.662,3.668a41.85,41.85,0,0,1,3.162,4.217,53.867,53.867,0,0,1,2.784,4.661,45.979,45.979,0,0,1,2.05,5.17c1.628,4.5,2.722,9.151,3.972,13.759l.977.685.52-1.043c-1.26-4.65-2.366-9.348-4.008-13.885-.607-1.8-1.077-3.616-1.505-5.42q-.749-2.668-1.225-5.361c-.336-1.789-.528-3.611-.758-5.4-.258-1.77-.444-3.549-.567-5.332s-.186-3.569-.2-5.356q-.134-2.62-.123-5.229c-.015-3.463.258-6.972.351-10.219.155-3.282.42-6.474.737-9.493s.528-5.752.847-8.288c.585-5.035,1.309-9.075,1.616-11.182l-1.38-2.05c-.2.987-.584,3.657-1.146,7.613-.584,3.974-1.147,9.07-1.606,14.8-.613,5.837-.81,12.1-.953,18.749-.008,3.29.16,6.586.292,9.994.152,3.4.71,6.687,1.141,10.126-.4-.969-.761-1.952-1.185-2.909l-1.336-2.842-2.671-5.685c-.938-1.87-1.979-3.689-2.965-5.535-1.031-1.822-1.925-3.722-3.078-5.474a83.049,83.049,0,0,1-7.684-17.6,135.315,135.315,0,0,1-4.291-17.873c-.948-5.94-1.779-11.5-2.286-16.6C475.6,316.4,475.11,312.1,474.93,308.719Z" transform="translate(-407.601 -298.176)" fill="#04427d"/>
        </g>
      </g>
      <g id="Group_18" data-name="Group 18" transform="translate(463.15 464.068)" opacity="0.3">
        <path id="Path_15" data-name="Path 15" d="M444.947,351.963a92.522,92.522,0,0,1,8.8,11.771c2.755,4.148,5.479,8.491,8.148,12.358,2.647,3.871,5.173,7.37,7.069,9.832l3.063,4.035-1.2.624a35.963,35.963,0,0,1-3.5,1.532A46.146,46.146,0,0,1,453.979,395a49.988,49.988,0,0,1-19.553-2.57,46.635,46.635,0,0,1-30.758-33.8,49.974,49.974,0,0,1-.721-19.709,46.182,46.182,0,0,1,4.129-13.006,36.734,36.734,0,0,1,1.854-3.346l.736-1.139,3.729,3.43c2.273,2.118,5.518,4.961,9.124,7.961,3.6,3.022,7.667,6.142,11.537,9.275A92.33,92.33,0,0,1,444.947,351.963Z" transform="translate(-402.29 -321.431)" fill="#0a6cc7" opacity="0.3"/>
        <g id="Group_17" data-name="Group 17" transform="translate(0.274)">
          <path id="Path_16" data-name="Path 16" d="M436.017,343.8l-.611-.526a31.246,31.246,0,0,0-3.169,12.119,26.332,26.332,0,0,0,4.848,16.884,77.656,77.656,0,0,1-12.561-13.605,20.346,20.346,0,0,1-3.643-13.346,25.729,25.729,0,0,1,3.378-10.978l-.668-.547a27,27,0,0,0-3.2,8.368,23.037,23.037,0,0,0,.359,10.784,79.675,79.675,0,0,1-10.669-31.045l-.53-.476h0l-.386.587a80.575,80.575,0,0,0,10.792,31.407c-5.533-5.383-12.347-9.566-17.392-12.642l-.116,1.063c3.176,1.912,7.084,4.335,10.879,7.153a48.092,48.092,0,0,1,10.443,10.212,78.563,78.563,0,0,0,12.711,13.767,132.285,132.285,0,0,0-17.935-7.138c-5.764-1.922-11-3.528-14.255-4.5l.373,1.184c3.986,1.156,10.5,3.115,17.358,5.5,6.949,2.416,14.056,5.157,20.579,9.679a79.451,79.451,0,0,0,13.121,7.438,94.085,94.085,0,0,0-12.117-1.426c-3.977-.268-7.885-.37-11.43-.445-7.085-.138-12.7-.15-13.934-.086l1.2,1.023c2.718-.062,9.858-.078,17.937.14,4.05.125,8.324.358,12.62.849a62.534,62.534,0,0,1,12.912,2.782,83.709,83.709,0,0,0,8.375,2.315l.621-.329s-.152-.208-.424-.574a82.323,82.323,0,0,1-8.277-2.288,23.271,23.271,0,0,1-10.4-7.229,26.666,26.666,0,0,1-5.16-10.069,30.479,30.479,0,0,1-.246-14.819l-.589-.722a30.6,30.6,0,0,0-.825,11.506,29.577,29.577,0,0,0,2.83,9.616,25.908,25.908,0,0,0,7.284,8.911,78.448,78.448,0,0,1-12.973-7.352,23,23,0,0,1-7.311-8.447,26.137,26.137,0,0,1-2.678-9.78A30.7,30.7,0,0,1,436.017,343.8Z" transform="translate(-402.453 -321.431)" fill="#04427d" opacity="0.5"/>
        </g>
      </g>
      <g id="Group_20" data-name="Group 20" transform="translate(703.776 453.924)" opacity="0.3">
        <path id="Path_17" data-name="Path 17" d="M608.572,380.017a61.051,61.051,0,0,1-21.121,14.27,66.207,66.207,0,0,1-11.112,3.322c-1.807.363-3.552.682-5.258.906-1.733.184-3.4.314-5,.4a58.591,58.591,0,0,1-8.737-.16q-1.944-.162-3.609-.378c-1.129-.184-2.16-.375-3.086-.562a54.329,54.329,0,0,1-5.757-1.444s.957-2.059,2.646-5.263c.425-.795.891-1.664,1.392-2.6.489-.962,1.014-1.989,1.564-3.069,1.112-2.148,2.383-4.423,3.662-6.962,1.331-2.477,2.73-5.077,4.156-7.73,1.507-2.573,2.944-5.391,4.613-7.968a79.007,79.007,0,0,1,25.506-27.206c2.464-1.831,5.184-3.446,7.656-5.115l7.447-4.645c2.452-1.439,4.639-2.853,6.711-4.1l2.963-1.76,2.5-1.556c3.088-1.892,5.081-2.978,5.081-2.978a54.1,54.1,0,0,1,1.812,5.653c.246.913.5,1.929.759,3.044q.326,1.648.609,3.577a58.461,58.461,0,0,1,.722,8.709c.019,1.6,0,3.272-.076,5.013-.113,1.718-.319,3.478-.565,5.305a66.017,66.017,0,0,1-2.6,11.3A61.047,61.047,0,0,1,608.572,380.017Z" transform="translate(-544.893 -315.419)" fill="#0a6cc7" opacity="0.3"/>
        <g id="Group_19" data-name="Group 19" opacity="0.5">
          <path id="Path_18" data-name="Path 18" d="M619.887,362.131l.513-1.244c-1.883.305-4.328.751-7.09,1.363-2.816.572-6.007,1.266-9.271,2.185A91.449,91.449,0,0,0,583.5,372.2a133.783,133.783,0,0,0,14.849-15.694,31.466,31.466,0,0,1,2.958-3.181,32.528,32.528,0,0,1,3.142-2.818,61.3,61.3,0,0,1,6.837-4.593c2.391-1.308,4.7-2.516,6.969-3.547s4.509-1.883,6.414-2.656l.024-1.2c-6.156,2.433-14.6,6-21.5,11.655a135.842,135.842,0,0,0,17.88-33.989l-.284-.756h0l-.722.4a134.794,134.794,0,0,1-17.74,33.719c3.208-8.395,1.763-17.154-.353-22.761l-.864.548a33.183,33.183,0,0,1,1.569,6.1,30.128,30.128,0,0,1,.43,7.276,26.59,26.59,0,0,1-1.51,7.762,30.627,30.627,0,0,1-1.655,3.82,27.121,27.121,0,0,1-2.427,3.547,132.582,132.582,0,0,1-14.738,15.575c4.357-6.213,5.886-13.557,6.032-19.749a48.907,48.907,0,0,0-.7-8.53,51.171,51.171,0,0,0-1.612-6.218l-.82.6a41.938,41.938,0,0,1,1.72,7.624,40.4,40.4,0,0,1,.1,10.4,35.8,35.8,0,0,1-3.316,11.481,38.708,38.708,0,0,1-3.415,5.4,32.214,32.214,0,0,1-4.706,4.73c-2.246,1.8-4.59,3.473-6.91,5.175-2.42,1.554-4.738,3.272-7.244,4.693,6.76-6.679,9.576-15.6,10.276-22.657a49.223,49.223,0,0,0-.019-9.112,36.769,36.769,0,0,0-.753-4.649l-.756.947a40.923,40.923,0,0,1,.715,6.756,42.775,42.775,0,0,1-.113,5.125,48.979,48.979,0,0,1-.911,5.808,34.719,34.719,0,0,1-1.966,6.154c-.427,1.036-.9,2.079-1.428,3.118q-.835,1.491-1.828,2.961c-.661.977-1.377,1.944-2.146,2.887a29.937,29.937,0,0,1-2.561,2.615,37.157,37.157,0,0,1-2.9,2.4,32,32,0,0,1-3.314,1.973c-2.9,1.6-5.953,2.9-8.962,4.278-.226.479-.354.747-.354.747l.773.235c3.034-1.394,6.11-2.7,9.036-4.313,9.271-4.814,19.331-6.306,28.5-7.028,2.259-.194,4.463-.3,6.552-.353s3.979-.14,5.737-.138c3.489-.03,6.3.127,7.772.167l1.272-1.109c-.69-.057-2.55-.106-5.3-.159s-6.292-.017-10.249.174c-8.017.348-17.534,1.169-26.526,4.082,2.524-1.433,4.861-3.162,7.3-4.73,2.337-1.714,4.7-3.4,6.962-5.216,7.185-5.68,15.384-8.921,23.273-11.321A180.067,180.067,0,0,1,619.887,362.131Z" transform="translate(-544.893 -315.419)" fill="#04427d"/>
        </g>
      </g>
      <g id="Group_23" data-name="Group 23" transform="translate(415.094 158.818)">
        <g id="Group_21" data-name="Group 21" transform="translate(83.297 81.574)">
          <path id="Path_19" data-name="Path 19" d="M620.363,236.683l-13.84,5.71a8.08,8.08,0,0,1-9.009-2.045q-2.113-2.278-4.37-4.386a8.084,8.084,0,0,1-2.02-9.016l5.747-13.821a8.017,8.017,0,0,0-4.325-10.48L561.07,189.556a8.016,8.016,0,0,0-10.48,4.325l-5.747,13.82a8.087,8.087,0,0,1-7.818,4.925q-3.085-.114-6.191-.007a8.079,8.079,0,0,1-7.8-4.946l-5.71-13.84a8.019,8.019,0,0,0-10.469-4.353l-31.514,13a8.019,8.019,0,0,0-4.353,10.469l5.71,13.838a8.08,8.08,0,0,1-2.045,9.011q-2.275,2.111-4.384,4.369a8.087,8.087,0,0,1-9.017,2.021l-13.82-5.747a8.015,8.015,0,0,0-10.48,4.323l-13.091,31.477a8.02,8.02,0,0,0,4.325,10.482L442,288.473a8.08,8.08,0,0,1,4.925,7.818q-.114,3.083-.005,6.189a8.082,8.082,0,0,1-4.947,7.8l-13.838,5.71a8.015,8.015,0,0,0-4.353,10.468l13,31.512a8.017,8.017,0,0,0,10.469,4.353l13.84-5.71a8.08,8.08,0,0,1,9.009,2.045q2.114,2.278,4.37,4.385a8.083,8.083,0,0,1,2.02,9.016l-5.747,13.821a8.018,8.018,0,0,0,4.325,10.48l31.477,13.089a8.017,8.017,0,0,0,10.48-4.325l5.747-13.82a8.084,8.084,0,0,1,7.818-4.926q3.085.114,6.191.007a8.08,8.08,0,0,1,7.8,4.946l5.71,13.84a8.017,8.017,0,0,0,10.469,4.352l31.514-13a8.019,8.019,0,0,0,4.354-10.469l-5.71-13.84a8.077,8.077,0,0,1,2.045-9.009q2.275-2.114,4.384-4.369a8.087,8.087,0,0,1,9.017-2.021l13.82,5.747a8.016,8.016,0,0,0,10.48-4.325l13.089-31.477a8.016,8.016,0,0,0-4.323-10.48l-13.821-5.747a8.085,8.085,0,0,1-4.926-7.818q.114-3.083.007-6.189a8.081,8.081,0,0,1,4.946-7.8l13.84-5.71a8.015,8.015,0,0,0,4.353-10.469l-13-31.512A8.017,8.017,0,0,0,620.363,236.683Zm-73.268,95.025A34.836,34.836,0,1,1,566.01,286.22,34.836,34.836,0,0,1,547.095,331.709Z" transform="translate(-423.176 -188.873)" fill="#0a6cc7" opacity="0.2"/>
          <path id="Path_20" data-name="Path 20" d="M490.826,213.089a79.989,79.989,0,1,0,104.451,43.435A79.988,79.988,0,0,0,490.826,213.089ZM538.579,328.83a45.217,45.217,0,1,1,24.553-59.045A45.217,45.217,0,0,1,538.579,328.83Z" transform="translate(-410.701 -176.398)" fill="#0a6cc7" opacity="0.3"/>
        </g>
      </g>
      <g id="Group_49" data-name="Group 49" transform="translate(558.454 184.954)">
        <g id="Group_28" data-name="Group 28" transform="translate(0)">
          <path id="Rectangle_4" data-name="Rectangle 4" d="M15.787,0H166.98a15.787,15.787,0,0,1,15.787,15.787v334a15.786,15.786,0,0,1-15.786,15.786H15.787A15.787,15.787,0,0,1,0,349.791v-334A15.787,15.787,0,0,1,15.787,0Z" transform="translate(0.783)" fill="#0a6cc7"/>
          <rect id="Rectangle_5" data-name="Rectangle 5" width="173.468" height="356.278" rx="13.031" transform="translate(5.433 4.65)" fill="#04427d" stroke="#282723" stroke-miterlimit="10" stroke-width="0.25"/>
          <path id="Path_23" data-name="Path 23" d="M590.249,165.743h0a9.978,9.978,0,0,1-9.978,9.979H511.119a9.978,9.978,0,0,1-9.978-9.979h0a2.627,2.627,0,0,0-2.627-2.627H481.075A14.382,14.382,0,0,0,466.693,177.5V490.361a14.38,14.38,0,0,0,14.382,14.38h129.24a14.38,14.38,0,0,0,14.382-14.38V177.5a14.382,14.382,0,0,0-14.382-14.382H592.876A2.627,2.627,0,0,0,590.249,165.743Z" transform="translate(-453.528 -151.14)" fill="#e5f3ff"/>
          <g id="Group_27" data-name="Group 27" transform="translate(78.339 13.14)">
            <path id="Path_24" data-name="Path 24" d="M531.227,167.3H507.063a1.746,1.746,0,0,1-1.746-1.746h0a1.745,1.745,0,0,1,1.746-1.745h24.163a1.745,1.745,0,0,1,1.745,1.745h0A1.745,1.745,0,0,1,531.227,167.3Z" transform="translate(-505.317 -163.806)" fill="#fff"/>
            <path id="Path_25" data-name="Path 25" d="M529.294,165.551a1.746,1.746,0,1,1-1.747-1.745A1.746,1.746,0,0,1,529.294,165.551Z" transform="translate(-491.235 -163.806)" fill="#fff"/>
          </g>
          <path id="Rectangle_10-2" data-name="Rectangle 10" d="M.272,0H1.9a.619.619,0,0,1,.619.619v23.75a.619.619,0,0,1-.619.619H.272A.272.272,0,0,1,0,24.716V.272A.272.272,0,0,1,.272,0Z" transform="translate(0 77.466)" fill="url(#linear-gradient)"/>
          <path id="Rectangle_11" data-name="Rectangle 11" d="M.272,0H1.9a.619.619,0,0,1,.619.619v23.75a.619.619,0,0,1-.619.619H.272A.272.272,0,0,1,0,24.716V.272A.272.272,0,0,1,.272,0Z" transform="translate(0 105.833)" fill="url(#linear-gradient)"/>
          <path id="Rectangle_12" data-name="Rectangle 12" d="M.272,0H1.9a.619.619,0,0,1,.619.619V52.735a.619.619,0,0,1-.619.619H.272A.272.272,0,0,1,0,53.083V.272A.272.272,0,0,1,.272,0Z" transform="translate(184.013 130.821) rotate(180)" fill="url(#linear-gradient-3)"/>
        </g>
        <g id="Group_48" data-name="Group 48" transform="translate(39.341 140.783)">
          <g id="Group_46" data-name="Group 46" transform="translate(0 0)">
            <g id="Group_45" data-name="Group 45" transform="translate(0 0)" style="mix-blend-mode: multiply;isolation: isolate">
              <rect id="Rectangle_13" data-name="Rectangle 13" width="68.563" height="10.573" transform="translate(18.748)" fill="#0a6cc7"/>
              <path id="Path_28" data-name="Path 28" d="M519.42,251.015l-3.294,3.294-3.294-3.294H509.71l6.415,6.415,6.415-6.415Z" transform="translate(-463.096 -231.502)" fill="#0a6cc7"/>
              <g id="Group_32-2" data-name="Group 32" transform="translate(0 157.823)">
                <rect id="Rectangle_14" data-name="Rectangle 14" width="50.8" height="17.291" fill="#0a6cc7"/>
                <rect id="Rectangle_15" data-name="Rectangle 15" width="50.8" height="17.291" transform="translate(55.259)" fill="#0a6cc7"/>
              </g>
              <g id="Group_41" data-name="Group 41" transform="translate(0 56.232)">
                <g id="Group_34-2" data-name="Group 34">
                  <g id="Group_33-2" data-name="Group 33" transform="translate(18.748 3.954)">
                    <line id="Line_1" data-name="Line 1" x2="87.311" transform="translate(0 0.843)" fill="#34adc7"/>
                    <rect id="Rectangle_16" data-name="Rectangle 16" width="87.311" height="1.687" fill="#0a6cc7"/>
                  </g>
                  <path id="Path_29" data-name="Path 29" d="M491.678,277.573a4.8,4.8,0,1,1-4.8-4.8A4.8,4.8,0,0,1,491.678,277.573Z" transform="translate(-482.085 -272.776)" fill="#0a6cc7"/>
                </g>
                <g id="Group_36" data-name="Group 36" transform="translate(0 20.765)">
                  <g id="Group_35" data-name="Group 35" transform="translate(18.748 3.953)">
                    <line id="Line_2" data-name="Line 2" x2="87.311" transform="translate(0 0.843)" fill="#34adc7"/>
                    <rect id="Rectangle_17" data-name="Rectangle 17" width="87.311" height="1.687" fill="#0a6cc7"/>
                  </g>
                  <path id="Path_30" data-name="Path 30" d="M491.678,289.878a4.8,4.8,0,1,1-4.8-4.8A4.8,4.8,0,0,1,491.678,289.878Z" transform="translate(-482.085 -285.082)" fill="#0a6cc7"/>
                </g>
                <g id="Group_38" data-name="Group 38" transform="translate(0 41.53)">
                  <g id="Group_37" data-name="Group 37" transform="translate(18.748 3.953)">
                    <line id="Line_3" data-name="Line 3" x2="87.311" transform="translate(0 0.843)" fill="#34adc7"/>
                    <rect id="Rectangle_18" data-name="Rectangle 18" width="87.311" height="1.687" fill="#0a6cc7"/>
                  </g>
                  <path id="Path_31" data-name="Path 31" d="M491.678,302.184a4.8,4.8,0,1,1-4.8-4.8A4.8,4.8,0,0,1,491.678,302.184Z" transform="translate(-482.085 -297.388)" fill="#0a6cc7"/>
                </g>
                <g id="Group_40" data-name="Group 40" transform="translate(0 62.293)">
                  <g id="Group_39" data-name="Group 39" transform="translate(18.748 3.954)">
                    <line id="Line_4" data-name="Line 4" x2="87.311" transform="translate(0 0.843)" fill="#34adc7"/>
                    <rect id="Rectangle_19" data-name="Rectangle 19" width="87.311" height="1.687" fill="#0a6cc7"/>
                  </g>
                  <path id="Path_32" data-name="Path 32" d="M491.678,314.49a4.8,4.8,0,1,1-4.8-4.8A4.8,4.8,0,0,1,491.678,314.49Z" transform="translate(-482.085 -309.693)" fill="#0a6cc7"/>
                </g>
              </g>
              <g id="Group_44" data-name="Group 44" transform="translate(0 42.36)">
                <g id="Group_42" data-name="Group 42" transform="translate(2.229 99.21)">
                  <line id="Line_5" data-name="Line 5" x2="106.059" transform="translate(0 0.211)" fill="#34adc7"/>
                  <rect id="Rectangle_20" data-name="Rectangle 20" width="106.058" height="0.422" transform="translate(0)" fill="#0a6cc7"/>
                </g>
                <g id="Group_43" data-name="Group 43">
                  <line id="Line_6" data-name="Line 6" x2="106.059" transform="translate(0 0.211)" fill="#34adc7"/>
                  <rect id="Rectangle_21" data-name="Rectangle 21" width="106.058" height="0.422" transform="translate(0)" fill="#0a6cc7"/>
                </g>
              </g>
            </g>
            <path id="Path_33" data-name="Path 33" d="M568.247,361.972H491.487a1.768,1.768,0,0,1-1.768-1.768h0a1.767,1.767,0,0,1,1.768-1.767h76.759a1.767,1.767,0,0,1,1.767,1.767h0A1.768,1.768,0,0,1,568.247,361.972Z" transform="translate(-476.838 -157.662)" fill="#d2dbea" style="mix-blend-mode: soft-light;isolation: isolate"/>
          </g>
        </g>
        <g id="icons8-flutter_1_" data-name="icons8-flutter (1)" transform="translate(63.251 43.862)">
          <path id="Path_464" data-name="Path 464" d="M42,4,6,40,16.8,50.8,63.6,4Z" transform="translate(-6 -4)" fill="#40c4ff"/>
          <path id="Path_465" data-name="Path 465" d="M51.6,22,31.8,41.8,21,31l9-9Z" transform="translate(5.998 10.397)" fill="#40c4ff"/>
          <rect id="Rectangle_53" data-name="Rectangle 53" width="15.272" height="15.272" transform="matrix(0.707, -0.707, 0.707, 0.707, 16.198, 52.196)" fill="#03a9f4"/>
          <path id="Path_466" data-name="Path 466" d="M51.6,52.8H30l-9-9L31.8,33Z" transform="translate(5.998 19.196)" fill="#01579b"/>
          <path id="Path_467" data-name="Path 467" d="M21,43.8l16.2-5.4L31.8,33Z" transform="translate(5.998 19.196)" fill="#084994"/>
        </g>
      </g>
      <g id="Group_58" data-name="Group 58" transform="translate(313.753 315.27)">
        <g id="Group_52" data-name="Group 52" transform="translate(0 102.649)">
          <g id="Group_50" data-name="Group 50" transform="translate(68.279 12.065)">
            <path id="Path_36" data-name="Path 36" d="M373.084,363.519c0,1.988-5.81,6.417-4.028,13.882a2.082,2.082,0,0,0,2.037,1.563H397.21a2.011,2.011,0,0,0,1.7-3.182,7.98,7.98,0,0,0-3.6-2.457c-5.28-2.025-9.181-9.805-9.181-9.805Z" transform="translate(-344.25 -258.415)" fill="#467cdb"/>
            <path id="Path_37" data-name="Path 37" d="M380.142,307.918c4.831,12.569,17.647,42.873,17.647,49.088,0,17.714-1.687,49.329-1.687,49.329s-2.477,4.9-13.05,0c0,0-.66-8.791-1.611-23.394s2.573-18.693,1.932-23.09-29.155-31.365-29.155-31.365l15.5-27.255Z" transform="translate(-354.217 -301.231)" fill="#04427d"/>
            <path id="Path_38" data-name="Path 38" d="M389.286,350.979c-1.478-5.847-14.437-22.736-21.578-33.663l-9.034-4.576-4.456,7.836s28.513,26.966,29.155,31.365-2.884,8.486-1.932,23.09,1.611,23.394,1.611,23.394c.511.236.987.432,1.461.624C382.569,360.585,390.634,356.312,389.286,350.979Z" transform="translate(-354.217 -293.321)" fill="#01315e"/>
          </g>
          <g id="Group_51" data-name="Group 51">
            <path id="Path_39" data-name="Path 39" d="M317.13,361.579a18.9,18.9,0,0,0-3.377,10.413,2.707,2.707,0,0,0,.85,1.986l4.2,4.048a8.187,8.187,0,0,0,5.678,2.271h12.939a2.177,2.177,0,0,0,2.082-2.948,10.941,10.941,0,0,0-2.965-4.154c-3.844-3.463-3.253-11.616-3.253-11.616Z" transform="translate(-313.753 -247.684)" fill="#467cdb"/>
            <path id="Path_40" data-name="Path 40" d="M364.928,294.081c-19.717,31.912-10.215,45.735-23.043,62.783s-12.687,7.31-26.131,51.113c0,0,2.852,4.117,16.153,0,0,0,6.652-23.467,18.055-32.222s27.555-35.938,44.184-45.613c0,0,5.7-2.3,10.452-20.735Z" transform="translate(-312.377 -294.081)" fill="#04427d"/>
          </g>
        </g>
        <g id="Group_53" data-name="Group 53" transform="translate(109.402)">
          <path id="Path_41" data-name="Path 41" d="M442.662,233.309c-1.944,1.077-4.785,4.745-5.908,6.255a3.567,3.567,0,0,0-.636,1.426L434,251.387c-2.843,2.757-19.682,8.509-25.876,9.834-4.774,1.019-5.665,2.681-8.248,4.306L399.3,279.7c.429-.234.827-.457,1.276-.7,17.513-9.438,29.241-19.835,35.984-23.445s3.233-12.333,3.513-13.646c.221-1.033,2.361-5.953,3.26-8A.479.479,0,0,0,442.662,233.309Z" transform="translate(-364.352 -233.248)" fill="#e5918f"/>
          <path id="Path_42" data-name="Path 42" d="M411.209,253.8c-5.314,2-25.539,5.815-30.462,10.745-4.031,4.036-2.627,14.238,6.012,14.348,8.417.108,10.48-3.432,26.777-12.343l.577-14.176A15.731,15.731,0,0,1,411.209,253.8Z" transform="translate(-378.588 -220.098)" fill="#ff8727"/>
        </g>
        <g id="Group_55" data-name="Group 55" transform="translate(106.01 15.261)">
          <path id="Path_43" data-name="Path 43" d="M399.691,263.5l-8.871,7.826s-13.443-10.809-12.586-10.674,12.647-11.613,12.647-11.613Z" transform="translate(-375.466 -237.652)" fill="#e5918f"/>
          <path id="Path_44" data-name="Path 44" d="M391.139,249.295h-.685c-2.086,2.067-11.459,11.309-12.22,11.187C377.74,260.4,382,263.965,385.7,267c5.219-3.112,1.606-9.284,3.243-8.349,1.758,1,2.064.312,3.037,1.367.931,1.006.094,6.442,2.62,7.809l5.091-4.492Z" transform="translate(-375.466 -237.478)" fill="#d77877"/>
          <g id="Group_54" data-name="Group 54">
            <path id="Path_45" data-name="Path 45" d="M398.319,250.535a5.55,5.55,0,0,0,2.432-3.525,3.761,3.761,0,0,0-1.62-3.8,3.072,3.072,0,0,0-3.987.709c-.16-1.021-1.4-1.532-2.455-1.618a5.945,5.945,0,0,0-3.044.781,14.283,14.283,0,0,1-2.9,1.267,16.644,16.644,0,0,1-2.6.263,5.129,5.129,0,0,0-2.48.705,2.123,2.123,0,0,0-1,2.175c.255.982,1.352,1.519,1.878,2.393a6.036,6.036,0,0,0-4.563,2.057,5.466,5.466,0,0,0-1.311,4.622,15.887,15.887,0,0,0,1.962,4.245,5.581,5.581,0,0,1,.715,4.483c-.284-.368-1.233.04-1.271.5a.985.985,0,0,0,.872.93,2.86,2.86,0,0,0,1.387-.213,3.364,3.364,0,0,1,1.382-.265c.989.1,1.625,1.044,2.482,1.53a2.913,2.913,0,0,0,2.383.2,2.783,2.783,0,0,0,1.665-1.662,8.167,8.167,0,0,0,.159-2.656,2.2,2.2,0,0,1,3.1-2.428c.672.2,1.306.525,1.993.668a4.75,4.75,0,0,0,4.488-1.733,6.964,6.964,0,0,0,1.407-4.639A18.066,18.066,0,0,0,398.319,250.535Z" transform="translate(-376.578 -242.292)" fill="#04427d"/>
            <path id="Path_46" data-name="Path 46" d="M388.483,256.967a2.357,2.357,0,0,0-4.515.194,2.758,2.758,0,0,0,.341,1.924,5.26,5.26,0,0,0,1.347,1.488,2.865,2.865,0,0,0,1.419.694,1.214,1.214,0,0,0,1.3-.7,12.9,12.9,0,0,0,2.494,4.666c1.7,1.812,6.5,3.01,7.961,1.952s1-12.283-5.271-21.226c0,0-2.285-.316-3.326,1.377s3,2.34,2.553,4.212c-.415,1.73-2.853,1.336-2.05,5.263a1.1,1.1,0,0,1-.874,1.3l-.832.165Z" transform="translate(-371.535 -239.786)" fill="#e5918f"/>
          </g>
        </g>
        <g id="Group_57" data-name="Group 57" transform="translate(52.551 39.308)">
          <path id="Path_47" data-name="Path 47" d="M411.831,298.614c11.424-14.184,9.613-24.249,1.878-32.44s-11.424-13.418-21.826-6.233-32.972,36.215-46.987,59.943c0,0,9.405,18.892,46.987,18.892,0,0,.759-14.976,5.035-21.656S407.593,303.879,411.831,298.614Z" transform="translate(-344.896 -256.543)" fill="#ff8727"/>
          <path id="Path_48" data-name="Path 48" d="M393.786,258.274c-1.465,3.2-2.324,11.479-4.391,13.546-2.6,2.6,1.478,13.967-9.006,26.632-9.79,11.83-11,14.036-16.148,38.088a94.077,94.077,0,0,0,14.345,1.046s.759-14.976,5.037-21.656,10.673-13.241,14.911-18.506c11.424-14.184,9.613-24.249,1.878-32.44A90.941,90.941,0,0,0,393.786,258.274Z" transform="translate(-331.599 -255.354)" fill="#ff7100"/>
          <g id="Group_56" data-name="Group 56" transform="translate(46.87 9.596)">
            <path id="Path_49" data-name="Path 49" d="M382.6,262.252c-10.676.658-14.339,17.3-2.917,21.973,9.486,3.879,25.356,6.031,40.064,5.113l1.79-13.479C409.749,276.2,393.229,261.6,382.6,262.252Z" transform="translate(-372.673 -262.23)" fill="#ff8727"/>
            <path id="Path_50" data-name="Path 50" d="M443.935,263.284c-2.678.091-6.851.68-6.851.68a1.816,1.816,0,0,0-1.6,1.446l-1.8,9.459c-9.535,3.017-18.647-.224-31.176.273-.051,0-.1-.007-.154-.007l-1.79,13.479c3-.189,5.955-.493,8.793-.948,13.334-2.138,23.792-5.494,28.9-7.737a3.708,3.708,0,0,0,2.133-4.288l-.661-2.673a7.115,7.115,0,0,1,4.326-8.287l1.352-.548S445.3,263.237,443.935,263.284Z" transform="translate(-353.497 -261.507)" fill="#e5918f"/>
          </g>
        </g>
      </g>
      <g id="Group_67" data-name="Group 67" transform="translate(658.627 278.807)">
        <g id="Group_64" data-name="Group 64" transform="translate(7.551 187.99)">
          <path id="Path_55" data-name="Path 55" d="M554.245,337.19c-4.558,22.717-1.664,24.482-3.225,39.622-1.124,10.887-5.469,22.552-5.469,30.7h-6.014s-2.188-19.02-2.735-30.432,1.915-16.3,0-23.367-.081-30.668-.081-30.668Z" transform="translate(-513.455 -323.048)" fill="#e5918f"/>
          <path id="Path_56" data-name="Path 56" d="M536.713,323.048s-.651,8.395-.771,16.67l17.255,3.017c.3-1.7.636-3.538,1.039-5.545Z" transform="translate(-513.447 -323.048)" fill="#955043"/>
          <path id="Path_57" data-name="Path 57" d="M539.327,373.106c.425,8.359-3.829,8.85-2.977,14.863a.581.581,0,0,0,.572.491h15.146a.567.567,0,0,0,.548-.727c-.433-1.463-1.608-4.694-3.721-5.469-2.754-1.007-3.555-9.157-3.555-9.157Z" transform="translate(-513.245 -288.639)" fill="#467cdb"/>
          <path id="Path_58" data-name="Path 58" d="M522.611,323.048c2.141,25.925.27,38.624,1.831,53.764,1.124,10.887,5.469,22.552,5.469,30.7h6.014s2.187-19.02,2.734-30.432-1.913-16.3,0-23.367,2.523-30.668,2.523-30.668Z" transform="translate(-522.611 -323.048)" fill="#e5918f"/>
          <path id="Path_59" data-name="Path 59" d="M522.611,323.048c.391,4.747.648,9.043.817,13l17.007,2.921c.542-8.025.746-15.921.746-15.921Z" transform="translate(-522.611 -323.048)" fill="#955043"/>
          <path id="Path_60" data-name="Path 60" d="M535.925,373.106c-.425,8.359,3.829,8.85,2.977,14.863a.582.582,0,0,1-.572.491H523.183a.566.566,0,0,1-.548-.727c.432-1.463,1.606-4.694,3.719-5.469,2.756-1.007,3.557-9.157,3.557-9.157Z" transform="translate(-522.611 -288.639)" fill="#467cdb"/>
        </g>
        <g id="Group_65" data-name="Group 65" transform="translate(0 0)">
          <path id="Path_61" data-name="Path 61" d="M528.229,229.179a2.978,2.978,0,0,1,.732-1.908c1.4-1.62,2.664-2.754,3.226-3.446.737-.908,1.507-10.953,1.078-11.554s-3.083-1.018-3.665-.088-4.764,6.064-5.236,7.413a43.57,43.57,0,0,0-1.912,8c-.164,1.195-.607,3.439-1.11,6.135l6.751,2.342C528.158,233.02,528.205,230.524,528.229,229.179Z" transform="translate(-515.931 -211.639)" fill="#e5918f"/>
          <path id="Path_62" data-name="Path 62" d="M540.874,275.677a134.853,134.853,0,0,1-10.668-19.989c-1.8-4.195-.088-19.859.093-28.611l-6.751-2.342c-.994,5.32-7.212,27.574-4.9,33.378,3.754,9.426,5.293,13.248,7.013,20.136,2.931,11.742,5.619,12.158,9.542,12.254C542.126,290.67,545.835,283.557,540.874,275.677Z" transform="translate(-518.136 -202.637)" fill="#ff8727"/>
        </g>
        <path id="Path_63" data-name="Path 63" d="M532.794,242.311c-.97,5.563-.177,10.744,4.855,12.7l2.253-11.3Z" transform="translate(-508.308 -190.555)" fill="#e5918f"/>
        <path id="Path_64" data-name="Path 64" d="M535.988,244.383c-.034,1.711-1.04,3.076-2.243,3.052s-2.153-1.429-2.119-3.139,1.039-3.076,2.244-3.052S536.022,242.673,535.988,244.383Z" transform="translate(-508.863 -191.289)" fill="#e5918f"/>
        <path id="Path_65" data-name="Path 65" d="M534.825,245.838v14.22s4.213,4.72,12.245,2.646v-17.52Z" transform="translate(-506.664 -188.581)" fill="#e5918f"/>
        <path id="Path_66" data-name="Path 66" d="M534.825,253.255c1.834,1.836,3.047,4.325,2.231,8.459a13.269,13.269,0,0,0,10.015.989v-17.52l-12.245.655Z" transform="translate(-506.664 -188.581)" fill="#955043"/>
        <path id="Path_67" data-name="Path 67" d="M541.058,254.665c9.333-3.9,22.41,2.238,31,7.381,0,0,.832,15.856-6.5,26.357s-1.509,19.714,1.51,28.5,9.487,22.071-.862,68.142l-47.65-6.643s-.923-30.214,7.192-51.857,9.195-32.356,7.9-39.856-4.068-15.932-6.269-22.167C526.062,260.785,537.047,256.342,541.058,254.665Z" transform="translate(-517.868 -182.912)" fill="#ff8727"/>
        <g id="Group_66" data-name="Group 66" transform="translate(48.33 79.133)">
          <path id="Path_68" data-name="Path 68" d="M552.64,258.536s-4.067,12.186-5.052,20.185a199,199,0,0,0-.461,29.625c.523,5.047,7.394,35.567,7.394,35.567h6.8s-4.141-32.334-4.141-37.917S563.438,264.039,552.64,258.536Z" transform="translate(-546.778 -258.536)" fill="#ff8727"/>
          <path id="Path_69" data-name="Path 69" d="M551.749,309.133c-.142,3.6,1.26,5.531,1.691,6.817s-1.2,4.072-2.161,4.18-.359,3.537,1.117,3.537,6.868-2.68,7.73-3.965-1.574-10.568-1.574-10.568Z" transform="translate(-544.006 -223.756)" fill="url(#linear-gradient-4)"/>
        </g>
        <path id="Path_70" data-name="Path 70" d="M533.456,240.772a8.143,8.143,0,0,0-1.058,3.513,12.8,12.8,0,0,0,.65,3.894q.851,3.09,1.7,6.181a8.456,8.456,0,0,0,1.311,3.081c1.146,1.446,3.076,1.984,4.872,2.438a6.209,6.209,0,0,0,7.834-2.533c1.714-1.907,3.479-3.9,4.191-6.36.688-2.376.314-4.91-.066-7.352a11.049,11.049,0,0,0-1.557-4.856,8.175,8.175,0,0,0-4.669-2.833,15.586,15.586,0,0,0-4.576-.942A11.256,11.256,0,0,0,533.456,240.772Z" transform="translate(-508.336 -195.583)" fill="#04427d"/>
        <path id="Path_71" data-name="Path 71" d="M560.3,262.038c-6.476-3.876-15.5-8.312-23.546-8.6h0c-.248,4.966,9.875,7.808,4.478,14.491-5.886,7.291-5.914,9.485-5.395,11.854,1.269,5.795,7.382,8.911,13.064,5.133,7.144-4.753,9.989-8.769,17.5-7.978C565.833,269.911,564.157,264,560.3,262.038Z" transform="translate(-506.109 -182.904)" fill="#fad553" style="mix-blend-mode: multiply;isolation: isolate"/>
        <path id="Path_72" data-name="Path 72" d="M544.068,248.381c.219,2.479-2.391,4.124-3.965,6.059a8.453,8.453,0,0,0-1.215,8.439c1.293,3.071,4.416,5.369,4.763,8.68.262,2.474-1.142,4.814-2.718,6.746s-3.42,3.739-4.325,6.059a8.359,8.359,0,0,0,2.99,9.778,7.574,7.574,0,0,0,9.925-1.677c1.637-2.266,1.753-5.31,3.174-7.716a8.3,8.3,0,0,1,7.7-3.942c4.966.439,8.7,5.249,13.661,5.695,4.141.371,8.15-2.717,9.39-6.66a12.6,12.6,0,0,0-2.688-11.584,19.718,19.718,0,0,0-10.605-6.118,32.946,32.946,0,0,1-5.965-1.593c-1.876-.85-3.576-2.458-3.815-4.5-.314-2.663,1.846-5.573.413-7.845s-4.89-1.789-7.106-2.658c-3.167-1.24-4.559-4.2-7.085-6.206-2.05-1.625-4.575-1.34-5.445,1.542C540.205,244.031,543.814,245.536,544.068,248.381Z" transform="translate(-505.808 -193.276)" fill="#04427d"/>
      </g>
    </g>
    <rect id="Rectangle_23" data-name="Rectangle 23" width="515" height="335" transform="translate(117.5 80.815)" fill="none"/>
  </g>
</svg>
